<svg width="16" height="16" viewBox="0 0 16 16" fill="none" xmlns="http://www.w3.org/2000/svg">
<path d="M3 1V2H2.5C1.67578 2 1 2.67578 1 3.5V12.5C1 13.3242 1.67578 14 2.5 14H12.5C13.3242 14 14 13.3242 14 12.5V3.5C14 2.67578 13.3242 2 12.5 2H12V1H11V2H4V1H3ZM2.5 3H3V4H4V3H11V4H12V3H12.5C12.7812 3 13 3.21875 13 3.5V5H2V3.5C2 3.21875 2.21875 3 2.5 3ZM2 6H13V12.5C13 12.7812 12.7812 13 12.5 13H2.5C2.21875 13 2 12.7812 2 12.5V6ZM5 7V8H6V7H5ZM7 7V8H8V7H7ZM9 7V8H10V7H9ZM11 7V8H12V7H11ZM3 9V10H4V9H3ZM5 9V10H6V9H5ZM7 9V10H8V9H7ZM9 9V10H10V9H9ZM11 9V10H12V9H11ZM3 11V12H4V11H3ZM5 11V12H6V11H5ZM7 11V12H8V11H7Z" fill="black"/>
</svg>
