<svg xmlns="http://www.w3.org/2000/svg" fill="none" viewBox="0 0 44 38"><path fill="#fff" d="M41.161 37.452H5.678a2.842 2.842 0 01-2.84-2.84V13.52c0-1.685 1.2-3.148 2.854-3.479l7.792-1.558V4.097A3.552 3.552 0 0117.032.548h12.775a3.552 3.552 0 013.548 3.549v4.386l7.792 1.558A3.558 3.558 0 0144 13.521v21.092a2.842 2.842 0 01-2.839 2.839zM17.032 1.968a2.132 2.132 0 00-2.129 2.129v5.55L5.97 11.432a2.136 2.136 0 00-1.712 2.088v21.092c0 .783.637 1.42 1.42 1.42H41.16a1.42 1.42 0 001.42-1.42V13.52c0-1.01-.72-1.889-1.712-2.087l-8.933-1.787v-5.55a2.132 2.132 0 00-2.13-2.128H17.033z"/><path fill="#fff" d="M30.516 11.903H16.322V4.807c0-.783.637-1.42 1.42-1.42h11.354c.783 0 1.42.637 1.42 1.42v7.096zm-12.774-1.419h11.354V4.807H17.742v5.677z"/><path fill="#fff" d="M27.677 11.194h-1.42V7.645H20.58v3.549h-1.419V6.226h8.516v4.968z"/><path fill="#E12025" d="M32.646 33.194h-21.29V16.16h21.29v17.033z"/><path fill="#fff" d="M37.613 26.806a3.552 3.552 0 01-3.548-3.548 3.552 3.552 0 013.548-3.548 3.552 3.552 0 013.548 3.548 3.552 3.552 0 01-3.548 3.549zm0-5.677a2.132 2.132 0 00-2.13 2.13c0 1.173.956 2.128 2.13 2.128s2.129-.955 2.129-2.129a2.132 2.132 0 00-2.13-2.129zM25.045 28.724l1.004-1.003-7.096-7.096-1.003 1.004 7.095 7.095zM25.046 24.469l1.004-1.004-2.839-2.838-1.004 1.003 2.84 2.839zM20.787 28.727l1.004-1.004-2.839-2.839-1.003 1.004 2.838 2.838zM7.807 21.13A2.132 2.132 0 015.677 19c0-1.174.956-2.129 2.13-2.129s2.129.955 2.129 2.13c0 1.173-.955 2.128-2.13 2.128zm0-2.84a.71.71 0 10.001 1.421.71.71 0 00-.001-1.42zM7.807 26.806a2.132 2.132 0 01-2.13-2.129c0-1.173.956-2.129 2.13-2.129s2.129.956 2.129 2.13a2.132 2.132 0 01-2.13 2.128zm0-2.838a.71.71 0 10.001 1.42.71.71 0 00-.001-1.42zM7.807 32.484a2.132 2.132 0 01-2.13-2.13c0-1.173.956-2.128 2.13-2.128s2.129.955 2.129 2.129a2.132 2.132 0 01-2.13 2.129zm0-2.839a.71.71 0 10.001 1.42.71.71 0 00-.001-1.42zM36.194 18.29a2.132 2.132 0 01-2.13-2.129c0-1.174.956-2.129 2.13-2.129 1.173 0 2.128.956 2.128 2.13a2.132 2.132 0 01-2.129 2.128zm0-2.838a.71.71 0 100 1.42.71.71 0 000-1.42zM41.161 33.194h-7.096v-4.259h7.096v4.259zm-5.677-1.42h4.258v-1.42h-4.258v1.42z"/><path fill="#fff" d="M38.323 29.645h-1.42v2.839h1.42v-2.839zM3.548 33.194H2.13A2.132 2.132 0 010 31.064V22.55c0-1.174.955-2.13 2.129-2.13h1.42v1.42h-1.42a.71.71 0 00-.71.71v8.516c0 .39.318.71.71.71h1.42v1.419zM6.387 10.484h-1.42V6.936h7.098v2.129h-1.42v-.71H6.387v2.129zM36.194 7.645h-1.42v1.42h1.42v-1.42zM39.033 8.355h-1.42v1.42h1.42v-1.42zM38.323 22.548h-1.42v1.42h1.42v-1.42zM33.355 12.613h-1.42v1.42h1.42v-1.42zM12.064 12.613h-1.42v1.42h1.42v-1.42zM9.226 12.613h-1.42v1.42h1.42v-1.42z"/></svg>