<svg xmlns="http://www.w3.org/2000/svg" viewBox="0 0 22 21"><path d="M.563.55v1.563h3.125c.335 0 .622.22.732.537l1.459 13.02a2.36 2.36 0 002.331 2.08h9.54v-1.562H8.21a.77.77 0 01-.775-.69l-.098-.872h9.913c1.11 0 2.08-.794 2.3-1.88l1.496-7.496H6.28l-.335-2.978-.025-.073A2.346 2.346 0 003.687.55H.563zm15.624 17.2c-.86 0-1.562.702-1.562 1.563 0 .86.702 1.563 1.563 1.563.86 0 1.562-.702 1.562-1.563 0-.86-.702-1.563-1.563-1.563zm-7.812 0c-.86 0-1.563.702-1.563 1.563 0 .86.702 1.563 1.563 1.563.86 0 1.563-.702 1.563-1.563 0-.86-.702-1.563-1.563-1.563zM6.458 6.813h12.684l-1.123 5.621a.778.778 0 01-.77.629H7.16l-.702-6.25z"/></svg>