<svg xmlns="http://www.w3.org/2000/svg" viewBox="0 0 35 35"><path d="M6.016 2.188c-.904 0-1.641.736-1.641 1.64v27.344c0 .903.737 1.64 1.64 1.64h21.876c.903 0 1.64-.736 1.64-1.64V9.656c0-.73-.284-1.417-.8-1.934L23.995 2.99a2.715 2.715 0 00-1.933-.801H6.016zm0 1.093h15.859v4.922c0 .904.737 1.64 1.64 1.64h4.922v21.329a.548.548 0 01-.546.547H6.016a.548.548 0 01-.547-.547V3.828c0-.301.245-.547.547-.547zm16.953.274c.09.06.175.128.254.207l4.734 4.734c.077.077.145.162.207.254h-4.648a.548.548 0 01-.547-.547V3.555zM10.39 7.656a.545.545 0 00-.547.547c0 .303.243.547.547.547h9.843a.545.545 0 00.547-.547.545.545 0 00-.547-.547h-9.843zm0 2.188a.545.545 0 00-.547.547c0 .303.243.546.547.546h10.937a.545.545 0 00.547-.546.545.545 0 00-.547-.547H10.391zm0 2.187a.545.545 0 00-.547.547c0 .304.243.547.547.547h8.75a.545.545 0 00.547-.547.545.545 0 00-.547-.547h-8.75zm10.937 0a.545.545 0 00-.547.547c0 .304.244.547.547.547h2.188a.545.545 0 00.547-.547.545.545 0 00-.547-.547h-2.188zM10.391 14.22a.545.545 0 00-.547.547c0 .303.243.546.547.546h13.125a.545.545 0 00.547-.546.545.545 0 00-.547-.547H10.39zm0 2.187a.545.545 0 00-.547.547c0 .303.243.547.547.547h13.125a.545.545 0 00.547-.547.545.545 0 00-.547-.547H10.39zm0 2.188a.545.545 0 00-.547.547c0 .303.243.547.547.547h7.656a.545.545 0 00.547-.547.545.545 0 00-.547-.547H10.39zm2.369 3.847a.916.916 0 00-.364.103c-.852.446-.858 2.03-.58 3.362.121.583.452 1.329.89 1.948-.218.453-.495.866-.833 1.182a.546.546 0 10.748.796 4.78 4.78 0 00.876-1.136c.045.034.09.066.134.096.203.13.398.203.592.22.235.02.474-.038.716-.17.365-.202.698-.526.963-.909.244.077.5.064.735-.038.651-.284.908-.816 1.047-1.1l.04-.088c.015-.03.032-.06.047-.092h.002c.789.148 1.306-.574 1.551-.92.16-.223.334-.332.348-.344.263.15.599.062.75-.199a.55.55 0 00-.198-.748c-.569-.329-1.271-.07-1.79.656-.201.282-.32.398-.38.449.019-.255.004-.498-.067-.695a.763.763 0 00-.42-.472.565.565 0 00-.494.03c-.14.084-.455.342-.342.979.028.162.081.33.158.493a1.791 1.791 0 01-.132.357l-.06.12c-.07.149-.145.3-.265.422.04-.185.062-.367.06-.542-.017-1.2-.242-1.863-.703-2.079a.716.716 0 00-.767.1c-.427.347-.583 1.214-.376 2.111.064.284.205.618.404.908-.178.276-.404.513-.637.641-.06.034-.092.04-.092.043-.006-.002-.034-.01-.094-.052a1.677 1.677 0 01-.256-.207c.297-.81.449-1.66.47-2.384.03-1.049-.199-1.882-.645-2.35-.402-.42-.77-.51-1.036-.49zm.117 1.132c.032.024.073.06.126.116.182.19.368.7.342 1.561-.01.38-.066.812-.169 1.252a3.798 3.798 0 01-.29-.818c-.246-1.184-.118-1.88-.009-2.11zm-5.768 3.77a.545.545 0 00-.546.548v1.093c0 .304.243.547.546.547a.545.545 0 00.547-.547v-1.093a.545.545 0 00-.547-.547zm2.735 0a.545.545 0 00-.547.548v1.093c0 .304.243.547.547.547a.545.545 0 00.547-.547v-1.093a.545.545 0 00-.547-.547zm8.75 0a.545.545 0 00-.547.548v1.093c0 .304.243.547.547.547a.545.545 0 00.547-.547v-1.093a.545.545 0 00-.547-.547zm2.734 0a.545.545 0 00-.547.548v1.093c0 .304.244.547.547.547a.545.545 0 00.547-.547v-1.093a.545.545 0 00-.547-.547zm2.735 0a.545.545 0 00-.547.548v1.093c0 .304.243.547.547.547a.545.545 0 00.546-.547v-1.093a.545.545 0 00-.547-.547zm2.734 0a.545.545 0 00-.547.548v1.093c0 .304.244.547.547.547a.545.545 0 00.547-.547v-1.093a.545.545 0 00-.547-.547z"/></svg>