<svg xmlns="http://www.w3.org/2000/svg" viewBox="0 0 35 35"><g clip-path="url(#clip0)"><path d="M16.95 0C11.374 0 7.179 3.264 5.888 8.263c-.077.028-.158.055-.235.088-2.236.875-3.982 2.44-4.907 4.402-.982 2.1-1 4.49-.053 6.917.936 2.39 2.927 4.758 5.328 6.324 1.77 1.153 3.554 1.753 5.14 1.753.61 0 1.19-.096 1.723-.275l3.521 6.035v.946a.547.547 0 101.094 0v-.942l4.845-8.073c.023-.04.032-.087.045-.13.2.02.403.034.61.034 1.974 0 4.2-.93 6.311-2.664 2.517-2.072 4.469-4.992 5.223-7.81.767-2.854.444-5.543-.93-7.78-1.285-2.093-3.445-3.642-6.07-4.343a11.244 11.244 0 00-3.318-.393C22.287.854 19.801 0 16.951 0zm0 1.094c2.129 0 4.026.519 5.6 1.465.461.274.886.58 1.286.923 2.198 1.871 3.506 4.738 3.506 8.173 0 4.674-2.455 9.662-5.572 12.429-.329.29-.662.557-1.008.799-1.235.863-2.538 1.367-3.811 1.367-.59 0-1.192-.109-1.788-.312a7.54 7.54 0 01-1.077-.474C10.108 23.34 6.56 17.276 6.56 11.655c0-.893.088-1.745.257-2.548.083-.417.192-.816.318-1.205 1.36-4.144 5.02-6.808 9.816-6.808zm-.044 1.072a10.01 10.01 0 00-1.696.16 10.51 10.51 0 00-1.047.246.547.547 0 10.31 1.051c.301-.09.615-.162.931-.22a8.256 8.256 0 012.95-.02.545.545 0 00.637-.44.548.548 0 00-.442-.636 8.915 8.915 0 00-1.643-.14zm3.53.748a.546.546 0 00-.238 1.044c.402.182.801.402 1.19.654a.55.55 0 00.758-.16.55.55 0 00-.162-.756c-.436-.284-.885-.53-1.337-.735a.573.573 0 00-.212-.047zm5.009.568c.59.045 1.192.154 1.802.318 2.359.628 4.284 2.002 5.426 3.863 1.21 1.974 1.487 4.362.804 6.923-.699 2.609-2.521 5.315-4.867 7.246-1.858 1.536-3.785 2.374-5.464 2.41 2.959-2.92 5.29-7.59 5.29-12.587 0-3.304-1.1-6.133-2.991-8.173zm5.58 4.193a.546.546 0 00-.496.88c.762.977 1.181 2.173 1.213 3.461a.55.55 0 00.547.534h.015a.547.547 0 00.532-.562c-.039-1.523-.538-2.943-1.446-4.105a.549.549 0 00-.366-.208zm-25.4 1.878a13.663 13.663 0 00-.158 2.102c0 6.31 3.708 12.091 7.71 14.497a4 4 0 01-.486.228c-1.613.635-3.834.16-6.077-1.3C4.4 23.63 2.568 21.457 1.71 19.27c-.837-2.142-.827-4.23.026-6.047.75-1.585 2.117-2.882 3.888-3.67zm4.874 4.061l-1.085.124a.542.542 0 00-.48.603c.03.28.267.487.54.487.021 0 .043 0 .062-.003l1.087-.123a.548.548 0 10-.124-1.087zm.748 2.698a.574.574 0 00-.213.037l-1.02.401a.547.547 0 00.402 1.017l1.017-.4a.546.546 0 00-.186-1.055zm1.414 2.442a.535.535 0 00-.405.102l-.879.65a.546.546 0 10.65.878l.88-.65a.548.548 0 00-.246-.98zm1.79 2.002a.539.539 0 00-.365.203l-.681.856a.544.544 0 00.427.887c.16 0 .32-.07.427-.205l.682-.857a.549.549 0 00-.49-.884zm6.14 5.473l-3.093 5.157v-4.074c1.01-.1 2.06-.479 3.093-1.083zm-6.304.502a6.92 6.92 0 002.117.579v4.026L13.874 27c.14-.086.28-.169.413-.27z"/></g><defs><clipPath id="clip0"><path fill="#fff" d="M0 0h35v35H0z"/></clipPath></defs></svg>