<svg xmlns="http://www.w3.org/2000/svg" viewBox="0 0 35 35"><path d="M23.79 0a.545.545 0 00-.524.39l-1.203 4.028a.535.535 0 01-.355.363.534.534 0 01-.5-.086l-3.34-2.55a.544.544 0 00-.846.615l1.394 3.965a.54.54 0 01-.072.504c-.107.147-.274.248-.457.224l-4.2-.102h-.015a.546.546 0 00-.31.997l3.46 2.387c.15.102.236.267.236.45a.537.537 0 01-.235.449l-3.46 2.388a.544.544 0 00-.21.618.55.55 0 00.534.378l3.283-.082L.752 31.156c-.414.414-.64.963-.64 1.546 0 .586.226 1.135.64 1.547.412.415.961.64 1.547.64.583 0 1.132-.225 1.546-.64L21.621 16.47l1.645 5.51a.545.545 0 001.046 0l1.203-4.027a.541.541 0 01.855-.28l3.34 2.553a.545.545 0 00.847-.615l-1.395-3.965a.539.539 0 01.072-.504.537.537 0 01.457-.225l4.2.103a.57.57 0 00.537-.38.546.546 0 00-.212-.618l-3.46-2.386a.54.54 0 01-.236-.45.54.54 0 01.235-.451l3.461-2.387a.546.546 0 00-.325-.997l-4.2.102a.497.497 0 01-.457-.224.539.539 0 01-.072-.504l1.395-3.965a.545.545 0 00-.846-.615L26.37 4.698a.534.534 0 01-.5.083.535.535 0 01-.355-.363L24.312.39A.545.545 0 0023.79 0zM13.9.004a.545.545 0 00-.485.887l.69.85a.546.546 0 10.849-.688l-.686-.85A.538.538 0 0013.9.004zm-2.108 2.072a.547.547 0 00-.237.983l.884.645a.54.54 0 00.32.103.544.544 0 00.443-.225.542.542 0 00-.12-.762l-.884-.645a.552.552 0 00-.406-.099zm11.997.385l.677 2.269a1.641 1.641 0 002.568.835l1.882-1.438-.786 2.235a1.64 1.64 0 00.22 1.508c.316.438.83.68 1.367.675l2.37-.058-1.951 1.348c-.444.306-.71.81-.71 1.35 0 .539.266 1.043.71 1.35l1.95 1.346-2.369-.058a1.668 1.668 0 00-1.367.676c-.316.435-.4 1-.22 1.508l.786 2.236-1.882-1.437a1.642 1.642 0 00-2.568.833l-.677 2.27-1.288-4.317 2.997-2.997c.415-.414.64-.963.64-1.546 0-.586-.226-1.135-.64-1.547a2.164 2.164 0 00-1.547-.64c-.583 0-1.132.226-1.546.64l-4.315 4.315-2.598.064 1.948-1.346a1.642 1.642 0 000-2.7l-1.948-1.348 2.367.058a1.66 1.66 0 001.37-.675c.315-.436.399-1 .22-1.508l-.787-2.235 1.88 1.438a1.641 1.641 0 002.57-.835l.677-2.27zM10.493 4.578A.553.553 0 0010 4.93a.55.55 0 00.316.708l1.021.39a.548.548 0 00.393-1.021l-1.023-.393a.524.524 0 00-.214-.036zm-.592 2.78a.547.547 0 10-.115 1.087l1.09.115a.546.546 0 10.113-1.09L9.9 7.357zm14.05 2.597c.293 0 .569.113.776.318a1.096 1.096 0 010 1.547l-5.52 5.52-1.547-1.547 5.52-5.52c.205-.205.48-.318.771-.318zm-13.04.09l-1.08.17a.546.546 0 10.17 1.081l1.082-.17a.547.547 0 00-.171-1.081zm5.976 6.522l1.546 1.546L3.072 33.477c-.415.412-1.134.412-1.547 0a1.089 1.089 0 01-.32-.776c0-.29.113-.566.32-.77l15.362-15.364zm3.23 6.421a.54.54 0 00-.48.265l-.689 1.26c-.104.19-.26.346-.45.451l-1.26.688a.55.55 0 00-.285.48c0 .2.11.385.284.479l1.263.69c.188.105.344.26.448.45l.688 1.261a.552.552 0 00.48.286.542.542 0 00.48-.286l.692-1.26c.102-.19.258-.346.45-.451l1.259-.69a.546.546 0 000-.96l-1.259-.687a1.135 1.135 0 01-.453-.45l-.69-1.261a.534.534 0 00-.478-.265zm0 1.666l.21.383c.202.373.51.681.884.886l.382.21-.38.209c-.376.205-.682.51-.885.884l-.211.383-.21-.383a2.215 2.215 0 00-.886-.882l-.382-.212.382-.209c.376-.205.681-.51.886-.886l.21-.383zm9.844.521a.54.54 0 00-.481.265l-1.12 2.049c-.202.37-.501.669-.871.872L25.44 29.48a.55.55 0 00-.284.48c0 .2.11.385.284.48l2.049 1.123c.37.2.67.5.872.867l1.119 2.05a.546.546 0 00.96 0l1.123-2.048c.2-.367.502-.668.87-.87l2.048-1.123a.542.542 0 00.286-.478.552.552 0 00-.286-.481l-2.049-1.12a2.188 2.188 0 01-.87-.871L30.44 25.44a.534.534 0 00-.478-.265zm0 1.667l.64 1.175c.302.55.753 1 1.306 1.3l1.173.644-1.173.64a3.28 3.28 0 00-1.305 1.306l-.641 1.173-.643-1.173a3.274 3.274 0 00-1.303-1.305l-1.173-.641 1.175-.643c.55-.302 1-.752 1.3-1.303l.644-1.173z"/></svg>