<svg xmlns="http://www.w3.org/2000/svg" fill="none" viewBox="0 0 16 16"><path fill="#898C9B" d="M7.5 1A6.505 6.505 0 001 7.5a6.505 6.505 0 009.84 5.578l-.516-.86A5.455 5.455 0 017.5 13 5.493 5.493 0 012 7.5C2 4.457 4.457 2 7.5 2S13 4.457 13 7.5v1.102C13 9.375 12.375 10 11.605 10h-.207A1.4 1.4 0 0110 8.602V6.398A2.409 2.409 0 007.602 4h-.204A2.409 2.409 0 005 6.398v2.204A2.409 2.409 0 007.398 11h.204a2.39 2.39 0 001.898-.953 2.395 2.395 0 001.898.953h.207A2.406 2.406 0 0014 8.602V7.5C14 3.914 11.086 1 7.5 1zm-.102 4h.204A1.4 1.4 0 019 6.398v2.204A1.4 1.4 0 017.602 10h-.204A1.397 1.397 0 016 8.602V6.398C6 5.625 6.625 5 7.398 5z"/></svg>