<svg xmlns="http://www.w3.org/2000/svg" fill="none" viewBox="0 0 45 46"><path fill="#fff" d="M18.984 10.933v9.91h1.407v-9.91c0-.712-.204-1.402-.591-1.993l-3.21-4.925-.009-.01-.292-.449a.73.73 0 01-.117-.395v-.295c0-.391.311-.71.694-.71.221 0 .432.11.562.292l4.67 6.562c.263.372.402.81.402 1.269v8.89h1.406v-8.89a3.62 3.62 0 00-.672-2.113l-4.669-6.563a2.094 2.094 0 00-1.7-.884c-1.07 0-1.947.827-2.074 1.889l-.016-.007L9.625.845A2.341 2.341 0 008.863.72h-.128c-1.328 0-2.408 1.104-2.408 2.461 0 .972.561 1.855 1.43 2.25l4.57 2.077c.367.165.677.433.899.773l1.887 2.894c.232.356.355.769.355 1.196v1.787l-.898-1.377a2.792 2.792 0 00-2.34-1.28H5.273c-1.938 0-3.515 1.612-3.515 3.594v.045a1.434 1.434 0 00-1.055 1.392v7.275c0 .516.112 1.036.324 1.506l3.55 7.864a8.952 8.952 0 001.108 1.833l.447.57a7.61 7.61 0 011.602 4.671h1.407c0-2.017-.68-3.995-1.911-5.568l-.447-.57a7.493 7.493 0 01-.929-1.538l-3.55-7.864a2.223 2.223 0 01-.195-.904V16.53c1.551 0 2.813 1.29 2.813 2.875v2.875c0 .675.315 1.32.844 1.725l1.405 1.078c.666.51 1.49.791 2.321.791 2.132 0 3.867-1.774 3.867-3.953v-2.875c0-2.18-1.735-3.953-3.867-3.953H3.164c0-1.19.946-2.156 2.11-2.156h6.957c.471 0 .908.239 1.17.64l1.83 2.808c.156.238.238.514.238.798v3.66h1.406V12.37c0-.712-.204-1.401-.59-1.993l-1.889-2.894a3.53 3.53 0 00-1.497-1.29l-4.57-2.077a1.026 1.026 0 01-.595-.936c0-.564.45-1.024 1.002-1.024h.128c.108 0 .215.018.317.052l5.15 1.755c.442.15.827.45 1.086.846l2.28 3.495.933 1.432c.232.356.354.77.354 1.197zM9.492 16.53c1.357 0 2.461 1.129 2.461 2.516v2.875c0 1.387-1.104 2.515-2.46 2.515-.53 0-1.054-.178-1.478-.503l-1.406-1.078a.728.728 0 01-.28-.575v-2.875a4.353 4.353 0 00-1.077-2.875h4.24zM19.655 35.585a9.036 9.036 0 00-.67 3.429v1.236h1.406v-1.236c0-.993.19-1.961.562-2.876l1.975-4.844-1.298-.554-1.975 4.845z"/><path fill="#E12025" d="M21.797 45.281H6.328v-5.75h15.469v5.75zM32.344 38.094c-6.591 0-11.953-5.481-11.953-12.219 0-6.738 5.362-12.219 11.953-12.219 6.59 0 11.953 5.481 11.953 12.219 0 6.738-5.362 12.219-11.953 12.219zm0-20.844c-4.653 0-8.438 3.869-8.438 8.625s3.785 8.625 8.438 8.625c4.652 0 8.437-3.869 8.437-8.625s-3.785-8.625-8.437-8.625z"/><path fill="#fff" d="M36.769 21.054l-7.238 7.399-1.612-1.649-.994 1.017 2.606 2.664 8.232-8.414-.994-1.017z"/><path fill="#fff" d="M32.344 33.781c-4.265 0-7.735-3.547-7.735-7.906a8.01 8.01 0 011.831-5.102l-1.072-.929a9.47 9.47 0 00-2.165 6.031c0 5.152 4.1 9.344 9.14 9.344a9.024 9.024 0 005.9-2.213l-.909-1.096a7.633 7.633 0 01-4.99 1.871zM32.343 16.531a9.024 9.024 0 00-5.9 2.213l.91 1.096a7.633 7.633 0 014.99-1.871c4.265 0 7.735 3.547 7.735 7.906a8.01 8.01 0 01-1.831 5.102l1.072.929a9.47 9.47 0 002.165-6.031c0-5.152-4.1-9.344-9.14-9.344z"/></svg>