<svg xmlns="http://www.w3.org/2000/svg" viewBox="0 0 19 19"><path d="M5.96.906C3.186.906.906 3.183.906 5.96v7.08c0 2.774 2.277 5.054 5.054 5.054h7.08c2.774 0 5.054-2.277 5.054-5.054V5.96c0-2.774-2.277-5.054-5.054-5.054H5.96zm0 1.563h7.08a3.487 3.487 0 013.491 3.491v7.08a3.487 3.487 0 01-3.491 3.491H5.96a3.487 3.487 0 01-3.491-3.491V5.96A3.487 3.487 0 015.96 2.469zm8.154 1.709a.705.705 0 00-.708.708c0 .393.315.708.708.708a.705.705 0 00.708-.708.705.705 0 00-.708-.708zM9.5 4.813A4.7 4.7 0 004.812 9.5 4.7 4.7 0 009.5 14.188 4.7 4.7 0 0014.188 9.5 4.7 4.7 0 009.5 4.812zm0 1.562A3.112 3.112 0 0112.625 9.5 3.112 3.112 0 019.5 12.625 3.112 3.112 0 016.375 9.5 3.112 3.112 0 019.5 6.375z"/></svg>