<svg xmlns="http://www.w3.org/2000/svg" fill="none" viewBox="0 0 18 18"><path fill="#E12025" d="M9 1.125A5.636 5.636 0 003.375 6.75c0 .87.356 1.824.848 2.83.492 1.01 1.134 2.066 1.78 3.028 1.283 1.93 2.562 3.498 2.562 3.498l.435.536.435-.536s1.279-1.569 2.566-3.498c.642-.963 1.284-2.017 1.776-3.028.492-1.006.848-1.96.848-2.83A5.636 5.636 0 009 1.125zM9 2.25c2.492 0 4.5 2.008 4.5 4.5 0 .527-.277 1.402-.734 2.338-.457.94-1.08 1.96-1.7 2.9-1.033 1.547-1.736 2.4-2.066 2.813-.33-.413-1.033-1.266-2.065-2.813-.62-.94-1.244-1.96-1.701-2.9-.457-.936-.734-1.81-.734-2.338 0-2.492 2.008-4.5 4.5-4.5zm0 3.375c-.62 0-1.125.505-1.125 1.125S8.38 7.875 9 7.875s1.125-.505 1.125-1.125S9.62 5.625 9 5.625z"/></svg>