<svg xmlns="http://www.w3.org/2000/svg" viewBox="0 0 18 18"><path d="M8.844.313C4.137.313.313 4.136.313 8.842c0 1.703.548 3.261 1.404 4.595L.251 17.534l4.563-1.287c1.21.661 2.553 1.128 4.03 1.128 4.706 0 8.531-3.825 8.531-8.531 0-4.707-3.825-8.531-8.531-8.531zm0 1.312a7.21 7.21 0 017.219 7.219A7.21 7.21 0 015.11 15.017l-.24-.15-2.528.708.82-2.276-.2-.277a7.21 7.21 0 015.88-11.397zm-3.2 2.625c-.148 0-.394.062-.604.308-.206.24-.79.83-.79 2.03 0 1.194.81 2.353.923 2.517.113.164 1.594 2.62 3.86 3.676.539.252.96.4 1.287.513a2.916 2.916 0 001.426.097c.435-.071 1.338-.59 1.527-1.158.185-.57.19-1.056.129-1.159-.052-.103-.205-.164-.431-.282-.226-.123-1.338-.713-1.543-.79-.205-.087-.36-.123-.513.118-.149.247-.58.795-.713.954-.133.164-.261.184-.487.062-.23-.123-.958-.38-1.82-1.21A7.128 7.128 0 016.64 8.239c-.133-.246-.015-.375.098-.492.102-.113.225-.288.338-.431.113-.139.149-.246.226-.405a.471.471 0 00-.016-.426c-.061-.123-.513-1.322-.697-1.81-.185-.471-.374-.41-.513-.415-.128-.01-.282-.01-.43-.01z"/></svg>