<svg xmlns="http://www.w3.org/2000/svg" fill="none" viewBox="0 0 64 64"><path fill="#000" d="M11 4c-3.86 0-7 3.14-7 7v42c0 3.86 3.14 7 7 7h42c3.86 0 7-3.14 7-7V11c0-3.86-3.14-7-7-7H11zm0 2h42c2.758 0 5 2.242 5 5v42c0 2.758-2.242 5-5 5H11c-2.758 0-5-2.242-5-5V11c0-2.758 2.242-5 5-5zm1 6c-.555 0-1 .445-1 1v2c0 .555.445 1 1 1 .555 0 1-.445 1-1v-2c0-.555-.445-1-1-1zm5 0c-.555 0-1 .445-1 1v2c0 .555.445 1 1 1 .555 0 1-.445 1-1v-2c0-.555-.445-1-1-1zm5 0c-.555 0-1 .445-1 1v2c0 .555.445 1 1 1 .555 0 1-.445 1-1v-2c0-.555-.445-1-1-1zm5 0c-.555 0-1 .445-1 1v2c0 .016.012.031.012.047C19.027 17.523 14 24.18 14 32c0 9.926 8.074 18 18 18s18-8.074 18-18c0-7.82-5.027-14.477-12.012-16.953 0-.016.012-.031.012-.047v-2c0-.555-.445-1-1-1-.555 0-1 .445-1 1v1.465a18.079 18.079 0 00-3-.414V13c0-.555-.445-1-1-1-.555 0-1 .445-1 1v1.05a18.079 18.079 0 00-3 .415V13c0-.555-.445-1-1-1zm15 0c-.555 0-1 .445-1 1v2c0 .555.445 1 1 1 .555 0 1-.445 1-1v-2c0-.555-.445-1-1-1zm5 0c-.555 0-1 .445-1 1v2c0 .555.445 1 1 1 .555 0 1-.445 1-1v-2c0-.555-.445-1-1-1zm5 0c-.555 0-1 .445-1 1v2c0 .555.445 1 1 1 .555 0 1-.445 1-1v-2c0-.555-.445-1-1-1zm-20 4c8.82 0 16 7.18 16 16s-7.18 16-16 16-16-7.18-16-16 7.18-16 16-16zm0 3c-7.168 0-13 5.832-13 13s5.832 13 13 13 13-5.832 13-13-5.832-13-13-13zm0 2c6.066 0 11 4.934 11 11s-4.934 11-11 11-11-4.934-11-11 4.934-11 11-11z"/><path fill="#E12025" d="M12 12c-.555 0-1 .445-1 1v2c0 .555.445 1 1 1 .555 0 1-.445 1-1v-2c0-.555-.445-1-1-1zm5 0c-.555 0-1 .445-1 1v2c0 .555.445 1 1 1 .555 0 1-.445 1-1v-2c0-.555-.445-1-1-1zm5 0c-.555 0-1 .445-1 1v2c0 .555.445 1 1 1 .555 0 1-.445 1-1v-2c0-.555-.445-1-1-1zm5 0c-.555 0-1 .445-1 1v2c0 .016.012.031.012.047C19.027 17.523 14 24.18 14 32c0 9.926 8.074 18 18 18s18-8.074 18-18c0-7.82-5.027-14.477-12.012-16.953 0-.016.012-.031.012-.047v-2c0-.555-.445-1-1-1-.555 0-1 .445-1 1v1.465a18.079 18.079 0 00-3-.414V13c0-.555-.445-1-1-1-.555 0-1 .445-1 1v1.05a18.079 18.079 0 00-3 .415V13c0-.555-.445-1-1-1zm15 0c-.555 0-1 .445-1 1v2c0 .555.445 1 1 1 .555 0 1-.445 1-1v-2c0-.555-.445-1-1-1zm5 0c-.555 0-1 .445-1 1v2c0 .555.445 1 1 1 .555 0 1-.445 1-1v-2c0-.555-.445-1-1-1zm-15 4c8.82 0 16 7.18 16 16s-7.18 16-16 16-16-7.18-16-16 7.18-16 16-16zm0 3c-7.168 0-13 5.832-13 13s5.832 13 13 13 13-5.832 13-13-5.832-13-13-13zm0 2c6.066 0 11 4.934 11 11s-4.934 11-11 11-11-4.934-11-11 4.934-11 11-11z"/></svg>