<svg xmlns="http://www.w3.org/2000/svg" viewBox="0 0 100 100"><path d="M50 .32C22.588.32.32 22.588.32 50S22.588 99.68 50 99.68 99.68 77.412 99.68 50 77.412.32 50 .32zm0 4.32c25.078 0 45.36 20.283 45.36 45.36 0 25.077-20.282 45.36-45.36 45.36C24.923 95.36 4.64 75.077 4.64 50 4.64 24.923 24.923 4.64 50 4.64zM34.792 24.16a2.16 2.16 0 00-2.16 2.168v.064l.181 47.448a2.16 2.16 0 003.249 1.86L77.009 51.79a2.16 2.16 0 00-.013-3.742l-41.128-23.6v.004a2.16 2.16 0 00-1.076-.291zm2.172 5.902l34.64 19.879-34.483 20.136-.157-40.015z"/></svg>