<svg xmlns="http://www.w3.org/2000/svg" fill="none" viewBox="0 0 64 64"><path fill="#000" d="M39.027.125C37.5.075 35.95.65 34.7 2c-1 1.102-1.699 3.5-2.101 5.8-.297-1.3-.797-2.5-1.399-3.198-1.898-2.102-5.199-2-7.199 0S22 9.8 24 11.8c.102.101.2.2.3.2H7c-1.7 0-3 1.3-3 3v6c0 .8.3 1.597.898 2.097.301.3.704.601 1.102.703V53c0 1.698 1.3 3 3 3h48c1.7 0 3-1.302 3-3V23.8c.398-.102.8-.402 1.098-.703C61.699 22.5 62 21.8 62 21v-6c0-1.7-1.3-3-3-3H40.7c1-.398 1.898-.898 2.5-1.5 2.3-2.3 2.3-6.2 0-8.5C42.05.852 40.55.176 39.026.125zM39.097 2C40.2 2 41.2 2.4 42 3.2A4.102 4.102 0 0142 9c-1.102 1.102-5.102 2.2-8 2.7.3-3.102 1-7.4 2.2-8.5C37 2.398 38 2 39.097 2zM27.5 5c.8 0 1.598.3 2.2.899.698.703 1.3 3.601 1.6 6.101h-1.8c-1.8-.398-3.598-1-4.2-1.7-1.198-1.198-1.198-3.198 0-4.401A3.11 3.11 0 0127.5 5zM7 14h25v8H7c-.3 0-.5-.101-.7-.3-.198-.2-.3-.4-.3-.7v-6c0-.601.398-1 1-1zm27 0h25c.602 0 1 .399 1 1v6c0 .3-.102.5-.3.7-.2.199-.4.3-.7.3H45c-.602 0-1 .399-1 1 0 .602.398 1 1 1h13v29c0 .602-.398 1-1 1H9c-.602 0-1-.398-1-1V24h24v20.903C32 45.5 32.398 46 33 46s1-.398 1-1.097V14zm3 8c-.602 0-1 .399-1 1 0 .602.398 1 1 1h4c.602 0 1-.398 1-1 0-.601-.398-1-1-1h-4zM13 48c-.602 0-1 .399-1 1v2c0 .602.398 1 1 1s1-.398 1-1v-2c0-.601-.398-1-1-1zm5 0c-.602 0-1 .399-1 1v2c0 .602.398 1 1 1s1-.398 1-1v-2c0-.601-.398-1-1-1zm5 0c-.602 0-1 .399-1 1v2c0 .602.398 1 1 1s1-.398 1-1v-2c0-.601-.398-1-1-1zm5 0c-.602 0-1 .399-1 1v2c0 .602.398 1 1 1s1-.398 1-1v-2c0-.601-.398-1-1-1zm5 0c-.602 0-1 .399-1 1v2c0 .602.398 1 1 1s1-.398 1-1v-2c0-.601-.398-1-1-1zm5 0c-.602 0-1 .399-1 1v2c0 .602.398 1 1 1s1-.398 1-1v-2c0-.601-.398-1-1-1zm5 0c-.602 0-1 .399-1 1v2c0 .602.398 1 1 1s1-.398 1-1v-2c0-.601-.398-1-1-1zm5 0c-.602 0-1 .399-1 1v2c0 .602.398 1 1 1s1-.398 1-1v-2c0-.601-.398-1-1-1zm5 0c-.602 0-1 .399-1 1v2c0 .602.398 1 1 1s1-.398 1-1v-2c0-.601-.398-1-1-1z"/><path fill="#E12025" d="M37 22c-.602 0-1 .398-1 1s.398 1 1 1h4c.602 0 1-.398 1-1s-.398-1-1-1h-4zM13 48c-.602 0-1 .398-1 1v2c0 .602.398 1 1 1s1-.398 1-1v-2c0-.602-.398-1-1-1zm5 0c-.602 0-1 .398-1 1v2c0 .602.398 1 1 1s1-.398 1-1v-2c0-.602-.398-1-1-1zm5 0c-.602 0-1 .398-1 1v2c0 .602.398 1 1 1s1-.398 1-1v-2c0-.602-.398-1-1-1zm5 0c-.602 0-1 .398-1 1v2c0 .602.398 1 1 1s1-.398 1-1v-2c0-.602-.398-1-1-1zm5 0c-.602 0-1 .398-1 1v2c0 .602.398 1 1 1s1-.398 1-1v-2c0-.602-.398-1-1-1zm5 0c-.602 0-1 .398-1 1v2c0 .602.398 1 1 1s1-.398 1-1v-2c0-.602-.398-1-1-1zm5 0c-.602 0-1 .398-1 1v2c0 .602.398 1 1 1s1-.398 1-1v-2c0-.602-.398-1-1-1zm5 0c-.602 0-1 .398-1 1v2c0 .602.398 1 1 1s1-.398 1-1v-2c0-.602-.398-1-1-1zm5 0c-.602 0-1 .398-1 1v2c0 .602.398 1 1 1s1-.398 1-1v-2c0-.602-.398-1-1-1z"/></svg>