<svg xmlns="http://www.w3.org/2000/svg" fill="none" viewBox="0 0 34 23"><g clip-path="url(#clip0)"><path fill="#E0E0E0" d="M8.739 14.547a10.7 10.7 0 01-1.074 1.21C5.627 17.73 2.916 18.817.034 18.817V23c8.344 0 15.109-6.553 15.109-14.636l-.034-1.046C15.11 3.277 11.727 0 7.555 0 3.382 0 0 3.277 0 7.318c0 4.042 3.382 7.318 7.555 7.318.402 0 .798-.03 1.184-.09zm18.857 0c-.327.43-.686.833-1.074 1.21-2.038 1.974-4.749 3.061-7.631 3.061V23C27.235 23 34 16.447 34 8.364l-.034-1.046C33.966 3.277 30.584 0 26.412 0c-4.173 0-7.555 3.277-7.555 7.318 0 4.042 3.382 7.318 7.555 7.318.403 0 .798-.03 1.184-.09z"/></g><defs><clipPath id="clip0"><path fill="#fff" d="M0 0h34v23H0z" transform="rotate(-180 17 11.5)"/></clipPath></defs></svg>