<svg xmlns="http://www.w3.org/2000/svg" fill="none" viewBox="0 0 45 46"><path fill="#E12025" d="M36.563 41.688c-1.554 0-2.813-1.288-2.813-2.876h-3.516c0 3.568 2.839 6.47 6.328 6.47 3.49 0 6.329-2.902 6.329-6.47h-3.516c0 1.588-1.26 2.876-2.813 2.876zM10.547 41.688c-1.553 0-2.813-1.288-2.813-2.876H5.625c-.515 0-.991-.151-1.406-.398v.398c0 3.568 2.838 6.47 6.328 6.47s6.328-2.902 6.328-6.47h-3.516c0 1.588-1.259 2.876-2.812 2.876zM5.625 15.813h4.219v4.312H5.625v-4.313zM37.025 23.845c-.75.939-1.166 2.165-1.166 3.468 0 2.773 1.892 5.03 4.22 5.03.162 0 .331-.017.5-.042.128-.569.202-1.153.202-1.746 0-2.792-1.458-5.328-3.756-6.71z"/><path fill="#fff" d="M44.297 38.813a6.48 6.48 0 00-3.225-5.623c.267-.84.412-1.726.412-2.635 0-3.526-2.17-6.729-5.401-7.967l-.224-.086v-1.34c.416.248.892.4 1.407.4h5.625v-5.75h-5.625c-.515 0-.991.153-1.407.4v-.4c0-1.15-.546-2.226-1.444-2.897-.182-1.205-1.194-2.134-2.423-2.134h-8.598a5.775 5.775 0 001.868-3.595h2.158c1.163 0 2.11-.967 2.11-2.156s-.947-2.156-2.11-2.156h-3.357C22.999 1.52 21.395.717 19.685.717c-3.101 0-5.625 2.58-5.625 5.75a5.773 5.773 0 002.834 4.986 6.45 6.45 0 00-3.168 3.64H2.812c-1.162 0-2.109.968-2.109 2.157v8.625c0 1.189.947 2.156 2.11 2.156H5a5.067 5.067 0 00-1.484 3.594v1.456a3.603 3.603 0 00-1.407 2.856c0 1.982 1.577 3.594 3.516 3.594h1.477c.327 1.638 1.747 2.875 3.445 2.875 1.698 0 3.117-1.237 3.444-2.875h19.127c.327 1.638 1.746 2.875 3.444 2.875 1.699 0 3.118-1.237 3.445-2.875h4.29v-.718zm-4.219-8.258c0 1.889-.72 3.665-2.026 5l-2.484 2.539h-2.521V15.56c.427-.209.785-.537 1.032-.946.232.351.374.762.374 1.198v7.686l1.136.436c2.686 1.029 4.49 3.69 4.49 6.62zM30.152 35.5l-1.999-8.686c-.52-2.263-2.306-3.973-4.551-4.356l-.399-.068-.001-6.578h8.439v22.28h-1.902c.32-.503.495-1.088.494-1.703v-.172c0-.239-.027-.48-.08-.718zm11.332-15.376h-1.406V17.25h1.406v2.875zm-4.218-2.875h1.406v2.875h-1.406c-.776 0-1.407-.645-1.407-1.438 0-.792.631-1.437 1.407-1.437zM28.124 5.03a.712.712 0 01-.703.719h-5.894l.12-.246a2.095 2.095 0 011.887-1.192h3.887c.388 0 .703.323.703.719zm-8.438-2.875a4.16 4.16 0 012.628.948 3.515 3.515 0 00-1.925 1.757l-.434.889H15.53c.336-2.037 2.069-3.594 4.155-3.594zm-4.155 5.031h8.31c-.336 2.036-2.069 3.594-4.156 3.594-2.086 0-3.818-1.558-4.154-3.594zm-.767 10.064c0-2.775 2.209-5.033 4.924-5.033l12.304.002c.582 0 1.055.483 1.055 1.078 0 .594-.473 1.078-1.055 1.078H18.984v1.438h2.811l.002 7.796 1.574.269c1.684.286 3.023 1.569 3.413 3.266l1.998 8.683c.03.13.045.26.045.39v.174c0 .455-.173.883-.488 1.204a1.636 1.636 0 01-1.177.499c-.766 0-1.43-.53-1.616-1.29l-1.831-7.488c-.392-1.603-1.794-2.722-3.41-2.722l-2.026-.001c-1.938 0-3.515-1.612-3.515-3.594V17.25zm9.818 20.844h-2.785v-6.469c0-1.407-.57-2.679-1.483-3.593a2.117 2.117 0 012.038 1.631l1.83 7.49c.084.341.221.657.4.94zm-21.77-11.5a.711.711 0 01-.703-.719V17.25c0-.396.315-.719.704-.719h10.586a6.542 6.542 0 00-.041.719V23c0 1.407.57 2.68 1.484 3.594H2.812zm7.735 14.375c-.916 0-1.689-.603-1.98-1.438h3.96c-.291.835-1.065 1.438-1.98 1.438zm7.031-2.875H5.625c-1.163 0-2.11-.968-2.11-2.157 0-1.188.947-2.156 2.11-2.156h9.844c1.163 0 2.11.968 2.11 2.157v2.156zm-2.11-5.75H5.626c-.24 0-.476.025-.703.072v-.791c0-1.982 1.577-3.594 3.516-3.594h8.437c1.939 0 3.516 1.612 3.516 3.594v6.469h-1.407v-2.157c0-1.981-1.577-3.593-3.515-3.593zm21.094 8.625c-.915 0-1.688-.603-1.98-1.438h3.96c-.29.835-1.064 1.438-1.98 1.438zm.995-2.875l1.489-1.523a8.54 8.54 0 001.483-2.054 5.036 5.036 0 012.312 3.577h-5.284z"/><path fill="#fff" d="M10.547 35.219h1.406v1.437h-1.406V35.22zM4.922 35.219h1.406v1.437H4.922V35.22zM7.734 35.219h1.407v1.437H7.734V35.22z"/></svg>