<svg xmlns="http://www.w3.org/2000/svg" fill="none" viewBox="0 0 18 18"><path fill="#E12025" d="M3.793 1.174l-1.771 1.77a3.035 3.035 0 00-.488 3.67c.773 1.327 1.406 2.307 4.056 4.953 2.645 2.65 3.366 3.01 4.671 3.775a3.027 3.027 0 003.665-.488l1.776-1.771-3.428-3.423-1.393 1.393a5.815 5.815 0 01-.708-.391A12.494 12.494 0 018.14 9.018 15.457 15.457 0 016.346 6.83a7.912 7.912 0 01-.501-.835l-.009-.018 1.38-1.38-3.423-3.423zm0 1.59l1.832 1.833-.804.809a.595.595 0 00-.18.457c0 .1.017.171.035.237.04.136.092.255.158.396.136.272.334.597.58.966.492.73 1.187 1.613 1.925 2.356.743.738 1.56 1.362 2.232 1.788.334.216.629.378.88.488.127.057.24.101.377.128.066.013.14.022.242.013a.601.601 0 00.4-.18l.804-.804 1.837 1.832-.98.98c-.61.61-1.556.743-2.303.308-1.327-.778-1.832-.985-4.447-3.595C3.77 8.16 3.27 7.356 2.505 6.047a1.903 1.903 0 01.308-2.302l.98-.98z"/></svg>