<svg xmlns="http://www.w3.org/2000/svg" fill="none" viewBox="0 0 64 64"><path fill="#000" d="M31 2C15.012 2 2 15.008 2 31s13.012 29 29 29 29-13.008 29-29S46.988 2 31 2zm0 2c14.887 0 27 12.113 27 27S45.887 58 31 58 4 45.887 4 31 16.113 4 31 4zm0 7c-6.297 0-12.25 3.031-16 8.016v-4.098a1 1 0 10-2 0V22a1 1 0 001 1h7a1 1 0 100-2h-4.96c3.323-4.953 8.972-8 14.96-8 9.926 0 18 8.074 18 18s-8.074 18-18 18c-5.023 0-9.688-2.02-13.125-5.684a1.009 1.009 0 00-1.418-.047 1.008 1.008 0 00-.043 1.419A20.084 20.084 0 0031 51c11.027 0 20-8.973 20-20s-8.973-20-20-20zm0 5a1 1 0 00-1 1v2a1 1 0 102 0v-2a1 1 0 00-1-1zm10 4a1 1 0 00-.707.293l-8.781 8.781A1.997 1.997 0 0031 29c-1.102 0-2 .898-2 2 0 1.102.898 2 2 2 .18 0 .348-.031.512-.074l4.281 4.281c.195.195.45.293.707.293a1 1 0 00.707-1.707l-4.281-4.281c.043-.164.074-.332.074-.512s-.031-.348-.074-.512l8.781-8.781A1 1 0 0041 20zm2.996 4.754c-.129 0-.262.023-.39.074l-1.856.75a.998.998 0 00.375 1.926c.125 0 .254-.02.375-.07l1.855-.75a1.001 1.001 0 00-.359-1.93zM17 30a1 1 0 100 2h2a1 1 0 100-2h-2zm26 0a1 1 0 100 2h2a1 1 0 100-2h-2zm-.89 4.496a.998.998 0 00-.36 1.926l1.855.75a1.001 1.001 0 00.75-1.855l-1.855-.75a.961.961 0 00-.39-.07zM13.495 37.41a.996.996 0 00-.918 1.387c.34.8.73 1.582 1.168 2.328.188.316.52.488.863.488.172 0 .348-.039.504-.133.477-.28.637-.894.356-1.37a18.297 18.297 0 01-1.047-2.09 1.005 1.005 0 00-.926-.61zm26.117.926a1 1 0 00-.676 1.719l1.438 1.386a1.008 1.008 0 001.414-.02 1.008 1.008 0 00-.023-1.417l-1.438-1.387a1.006 1.006 0 00-.715-.281zM31 42a1 1 0 00-1 1v2a1 1 0 102 0v-2a1 1 0 00-1-1z"/><path fill="#E12025" d="M31 16a1 1 0 00-1 1v2a1 1 0 102 0v-2a1 1 0 00-1-1zm10 4a1 1 0 00-.707.293l-8.781 8.781A1.997 1.997 0 0031 29c-1.102 0-2 .898-2 2 0 1.102.898 2 2 2 .18 0 .348-.031.512-.074l4.281 4.281c.195.195.45.293.707.293a1 1 0 00.707-1.707l-4.281-4.281c.043-.164.074-.332.074-.512s-.031-.348-.074-.512l8.781-8.781A1 1 0 0041 20zm2.996 4.754c-.129 0-.262.023-.39.074l-1.856.75a.998.998 0 00.375 1.926c.125 0 .254-.02.375-.07l1.855-.75a1.001 1.001 0 00-.359-1.93zM17 30a1 1 0 100 2h2a1 1 0 100-2h-2zm26 0a1 1 0 100 2h2a1 1 0 100-2h-2zm-.89 4.496a.998.998 0 00-.36 1.926l1.855.75a1.001 1.001 0 00.75-1.855l-1.855-.75a.961.961 0 00-.39-.07zM13.495 37.41a.996.996 0 00-.918 1.387c.34.8.73 1.582 1.168 2.328.188.316.52.488.863.488.172 0 .348-.039.504-.133.477-.28.637-.894.356-1.37a18.297 18.297 0 01-1.047-2.09 1.005 1.005 0 00-.926-.61zm26.117.926a1 1 0 00-.676 1.719l1.438 1.386a1.008 1.008 0 001.414-.02 1.008 1.008 0 00-.023-1.417l-1.438-1.387a1.006 1.006 0 00-.715-.281zM31 42a1 1 0 00-1 1v2a1 1 0 102 0v-2a1 1 0 00-1-1z"/></svg>