<svg xmlns="http://www.w3.org/2000/svg" fill="none" viewBox="0 0 25 14"><path fill="#E12025" d="M11.729.003C10.42-.01 9.307.003 8.68.31c-.417.201-.737.66-.543.682.244.034.794.153 1.086.55.376.507.362 1.655.362 1.655s.208 3.16-.508 3.556c-.494.271-1.17-.279-2.63-2.79C5.703 2.668 5.14 1.242 5.14 1.242s-.105-.264-.3-.404c-.236-.173-.563-.23-.563-.23L.79.63S.269.65.08.873c-.174.209-.014.62-.014.62s2.728 6.38 5.817 9.595c2.832 2.95 6.047 2.755 6.047 2.755h1.46s.44-.049.662-.285c.208-.223.202-.64.202-.64s-.028-1.956.876-2.248c.898-.278 2.039 1.893 3.257 2.728.925.633 1.628.494 1.628.494l3.256-.049s1.698-.104.89-1.447c-.062-.105-.465-.988-2.414-2.797-2.045-1.893-1.774-1.587.69-4.864 1.495-1.997 2.094-3.215 1.906-3.743-.181-.494-1.28-.362-1.28-.362l-3.668.02s-.27-.034-.473.084c-.194.118-.32.397-.32.397s-.584 1.544-1.357 2.86c-1.628 2.769-2.289 2.922-2.553 2.748-.62-.404-.466-1.614-.466-2.47 0-2.693.41-3.806-.793-4.099-.397-.097-.69-.16-1.705-.167z"/></svg>