<svg width="16" height="16" viewBox="0 0 16 16" fill="none" xmlns="http://www.w3.org/2000/svg">
<path d="M7.5 1C3.91406 1 1 3.91406 1 7.5C1 11.0859 3.91406 14 7.5 14C8.71875 14 9.86328 13.6641 10.8398 13.0781L10.3242 12.2188C9.5 12.7148 8.53516 13 7.5 13C4.45703 13 2 10.543 2 7.5C2 4.45703 4.45703 2 7.5 2C10.543 2 13 4.45703 13 7.5V8.60156C13 9.375 12.375 10 11.6055 10H11.3984C10.6289 10 10 9.375 10 8.60156V6.39844C10 5.08203 8.91797 4 7.60156 4H7.39844C6.08203 4 5 5.08203 5 6.39844V8.60156C5 9.91797 6.08203 11 7.39844 11H7.60156C8.375 11 9.0625 10.6211 9.5 10.0469C9.94141 10.6211 10.625 11 11.3984 11H11.6055C12.918 11 14 9.92188 14 8.60156V7.5C14 3.91406 11.0859 1 7.5 1ZM7.39844 5H7.60156C8.37109 5 9 5.625 9 6.39844V8.60156C9 9.375 8.37109 10 7.60156 10H7.39844C6.625 10 6 9.375 6 8.60156V6.39844C6 5.625 6.625 5 7.39844 5Z" fill="#898C9B"/>
</svg>
